Coordinates
nRows=10
nColumns=38

# SIMM Motion File Header:
name Coordinates
datacolumns 38
datarows 10
otherdata 1
range 1.14999999999999990000 1.15900000000000000000

Units are S.I. units (second, meters, Newtons, ...)
Angles are in degrees.

endheader
time	pelvis_tx	pelvis_ty	pelvis_tz	pelvis_tilt	pelvis_list	pelvis_rotation	hip_flexion_r	hip_adduction_r	hip_rotation_r	knee_angle_r	ankle_angle_r	subtalar_angle_r	mtp_angle_r	hip_flexion_l	hip_adduction_l	hip_rotation_l	knee_angle_l	ankle_angle_l	subtalar_angle_l	mtp_angle_l	lumbar_extension	lumbar_bending	lumbar_rotation	arm_flex_r	arm_add_r	arm_rot_r	elbow_flex_r	pro_sup_r	wrist_flex_r	wrist_dev_r	arm_flex_l	arm_add_l	arm_rot_l	elbow_flex_l	pro_sup_l	wrist_flex_l	wrist_dev_l
      1.14999999999999990000	      0.84521977417341410000	      0.95235320815007574000	     -0.19411457106176214000	      2.65052759266634960000	     -6.64142059852727940000	     -3.11200101840211650000	     25.74251767791160000000	     12.80734616719177600000	      0.17872395123358148000	    -34.70621552282326400000	     11.26144160156045400000	     -0.00000000000000387357	      0.00000000000002525480	    -14.99751170449780500000	    -11.19525243039932000000	    -10.88647330508307800000	    -70.86010678463299000000	    -22.62885666038752700000	     -0.00000000000022448949	     -0.00000000000008906313	     -9.34455540064593040000	      6.20040997803643990000	    -10.83824070379765900000	    -36.68004325962011300000	    -33.91040750979875200000	      9.48514880918454750000	     62.16890165675091100000	    104.07046965065871000000	     -0.00000000000002546018	     -0.00000000000003087600	     -6.20721655636153270000	    -21.24508254684273100000	     11.36802837834159500000	     86.17921845542717600000	    114.43187496386517000000	     -0.00000000000000184380	     -0.00000000000003089056
      1.15100000000000000000	      0.84496083637849140000	      0.95164516170515434000	     -0.19418349743348737000	      2.64463652036128490000	     -6.72079787652453040000	     -3.09844402783174690000	     25.76878723511919800000	     12.90778267969701100000	      0.14131024818457455000	    -35.12909235950707700000	     11.46575374328525300000	     -0.00000000000000387168	      0.00000000000002555003	    -14.67090800966481200000	    -11.33291457831663600000	    -10.78261753627842400000	    -71.41019189838995400000	    -22.46224778011744800000	     -0.00000000000022534090	     -0.00000000000008975192	     -9.37513924154876580000	      6.30582938598789870000	    -10.78106816460242200000	    -36.48365539686587100000	    -33.98098401503042300000	      9.52129267102782070000	     62.22091202622358700000	    104.10737724711257000000	     -0.00000000000002554791	     -0.00000000000003094406	     -6.23659498680524750000	    -21.17747522290002100000	     11.42640966905453900000	     85.87524401152535300000	    114.43931650806134000000	     -0.00000000000000187222	     -0.00000000000003107199
      1.15199999999999990000	      0.84470254978835069000	      0.95094233884753254000	     -0.19425252525961620000	      2.63855621431219150000	     -6.79992921919770850000	     -3.08463777994892130000	     25.79213474303679700000	     13.00809199956061900000	      0.10437140456620259000	    -35.54913723145188700000	     11.67148575565764400000	     -0.00000000000000386324	      0.00000000000002581950	    -14.34224850599437300000	    -11.46928832464458200000	    -10.67646757065465300000	    -71.95544285442191800000	    -22.29536314087082300000	     -0.00000000000022619451	     -0.00000000000009043720	     -9.40485008864950520000	      6.41090631550425450000	    -10.72291939185043200000	    -36.28663372358767700000	    -34.05102086111074300000	      9.55651333278688500000	     62.27419619866602600000	    104.14454852421257000000	     -0.00000000000002563829	     -0.00000000000003101263	     -6.26701129119542970000	    -21.10994375597962100000	     11.48467534771048900000	     85.57243283712604400000	    114.44591907093813000000	     -0.00000000000000189638	     -0.00000000000003124723
      1.15300000000000000000	      0.84444489882616991000	      0.95024493592654302000	     -0.19432164694005519000	      2.63228734851922890000	     -6.87876539122749260000	     -3.07059807955727230000	     25.81244212363950300000	     13.10822281558813500000	      0.06798801076121781300	    -35.96610055356559600000	     11.87853482904006900000	     -0.00000000000000386608	      0.00000000000002613520	    -14.01154942069748100000	    -11.60430265788024500000	    -10.56809629545918300000	    -72.49580738961043400000	    -22.12820972045780400000	     -0.00000000000022704859	     -0.00000000000009112267	     -9.43370204736911510000	      6.51558127416043220000	    -10.66377985982992400000	    -36.08904302307512800000	    -34.12050168067042900000	      9.59077213100617240000	     62.32879035994125900000	    104.18198000711423000000	     -0.00000000000002573138	     -0.00000000000003108041	     -6.29849217017750180000	    -21.04251920753321100000	     11.54281632622009300000	     85.27089786129622000000	    114.45166787161756000000	     -0.00000000000000191792	     -0.00000000000003142188
      1.15399999999999990000	      0.84418785891660908000	      0.94955313666011398000	     -0.19439085866380923000	      2.62583028446349420000	     -6.95725673315883060000	     -3.05634018439667400000	     25.82959193682657100000	     13.20812377664854200000	      0.03223994803730660000	    -36.37973653845568100000	     12.08679545526405100000	     -0.00000000000000387853	      0.00000000000002646528	    -13.67882768935154300000	    -11.73788744138029600000	    -10.45757773463148700000	    -73.03123667909619600000	    -21.96079273891832200000	     -0.00000000000022790460	     -0.00000000000009180881	     -9.46171226364124430000	      6.61979483421086460000	    -10.60363496891503300000	    -35.89094740828634400000	    -34.18941124490393700000	      9.62403094949114110000	     62.38473099516527800000	    104.21966844144018000000	     -0.00000000000002582448	     -0.00000000000003115231	     -6.33106397305351900000	    -20.97523289251454800000	     11.60082307409124500000	     84.97075122470001000000	    114.45654899728804000000	     -0.00000000000000193268	     -0.00000000000003158687
      1.15500000000000000000	      0.84393139756496116000	      0.94886711363982035000	     -0.19446016008927663000	      2.61918512243998030000	     -7.03535320563901130000	     -3.04187887477817490000	     25.84346758894496400000	     13.30774349200547000000	     -0.00279370898538547660	    -36.78980313052120700000	     12.29615967178790500000	     -0.00000000000000388762	      0.00000000000002678698	    -13.34410086146276200000	    -11.86997345977883400000	    -10.34498702090300300000	    -73.56168514361822000000	    -21.79311566795655600000	     -0.00000000000022876171	     -0.00000000000009249174	     -9.48890047632317210000	      6.72348767615144900000	    -10.54247005547043300000	    -35.69241028999507400000	    -34.25773541108205200000	      9.65625224321009590000	     62.44205484982242600000	    104.25761080038261000000	     -0.00000000000002592197	     -0.00000000000003122716	     -6.36475275614143940000	    -20.90811634347639400000	     11.65868561708626700000	     84.67210428607278100000	    114.46054941467328000000	     -0.00000000000000194336	     -0.00000000000003173293
      1.15599999999999990000	      0.84367547544556465000	      0.94818702982856951000	     -0.19452955401585229000	      2.61235175274510300000	     -7.11300443361450260000	     -3.02722853118238260000	     25.85395354259194200000	     13.40703053291840500000	     -0.03703478903740378700	    -37.19606193856324700000	     12.50651727388929400000	     -0.00000000000000387108	      0.00000000000002709480	    -13.00738700606525100000	    -12.00049246668645600000	    -10.23040036827773800000	    -74.08711025862533000000	    -21.62518024099727000000	     -0.00000000000022961972	     -0.00000000000009316901	     -9.51528856443206190000	      6.82660063368073190000	    -10.48027039956742700000	    -35.49349434447890400000	    -34.32546107081065400000	      9.68739906143163410000	     62.50079889105730000000	    104.29580429188678000000	     -0.00000000000002601790	     -0.00000000000003129493	     -6.39958434311177720000	    -20.84120127410859200000	     11.71639353521824300000	     84.37506762662675900000	    114.46365698156518000000	     -0.00000000000000195234	     -0.00000000000003188049
      1.15700000000000000000	      0.84342004749595367000	      0.94751304005131465000	     -0.19459904604869974000	      2.60532990637567740000	     -7.19015975063068510000	     -3.01240321894882430000	     25.86093552740225500000	     13.50593343563197600000	     -0.07040611983641918700	    -37.59827816832624600000	     12.71775599752226800000	     -0.00000000000000384344	      0.00000000000002741745	    -12.66870461789396000000	    -12.12937723344444600000	    -10.11389504501007200000	    -74.60747236585496000000	    -21.45698646407762000000	     -0.00000000000023047991	     -0.00000000000009384221	     -9.54090009123490820000	      6.92907473996407570000	    -10.41702122990255900000	    -35.29426148058615100000	    -34.39257609956664700000	      9.71743506984211610000	     62.56100026946666000000	    104.33424636587230000000	     -0.00000000000002611430	     -0.00000000000003135510	     -6.43558438721437830000	    -20.77451954241876200000	     11.77393596001935800000	     84.07975105161243300000	    114.46586045845852000000	     -0.00000000000000195750	     -0.00000000000003201514
      1.15799999999999990000	      0.84316506401421776000	      0.94684529247944804000	     -0.19466864425861205000	      2.59811920505587280000	     -7.26676824324215340000	     -2.99741677919399900000	     25.86430075133789000000	     13.60440070567799400000	     -0.10283162261497909000	    -37.99622055583513700000	     12.92976167297011800000	     -0.00000000000000384037	      0.00000000000002770930	    -12.32807252457642400000	    -12.25656159858338300000	     -9.99554934708388560000	    -75.12273448788491200000	    -21.28853262769132100000	     -0.00000000000023134098	     -0.00000000000009451000	     -9.56575984679189690000	      7.03085127505514860000	    -10.35270772553234400000	    -35.09477280597924000000	    -34.45906930791952800000	      9.74632457142608820000	     62.62269628163954100000	    104.37293472147455000000	     -0.00000000000002621097	     -0.00000000000003141370	     -6.47277843540326000000	    -20.70810311374443600000	     11.83130157106144500000	     83.78626358851676100000	    114.46714952029801000000	     -0.00000000000000196196	     -0.00000000000003214856
      1.15900000000000000000	      0.84291047175767997000	      0.94618393010947088000	     -0.19473835883847224000	      2.59071921046938500000	     -7.34277879552284580000	     -2.98228292525370840000	     25.86393811214111700000	     13.70238082350319300000	     -0.13423640550797075000	    -38.38966130220779100000	     13.14241834929245900000	     -0.00000000000000380806	      0.00000000000002803038	    -11.98550979516907800000	    -12.38198051773301400000	     -9.87544257219070150000	    -75.63286214601149000000	    -21.11981531965514200000	     -0.00000000000023220367	     -0.00000000000009516954	     -9.58989339011447580000	      7.13187181437187420000	    -10.28731501406146400000	    -34.89508859231860100000	    -34.52493039477916900000	      9.77403252592194250000	     62.68592433366371400000	    104.41186731429023000000	     -0.00000000000002630701	     -0.00000000000003146925	     -6.51119199442044310000	    -20.64198402372896600000	     11.88847859172894400000	     83.49471348151001800000	    114.46751476834309000000	     -0.00000000000000196942	     -0.00000000000003228488
